{
	"asset":{
		"generator":"Khronos glTF Blender I/O v3.5.30",
		"version":"2.0"
	},
	"scene":0,
	"scenes":[
		{
			"name":"Scene",
			"nodes":[
				0,
				1
			]
		}
	],
	"nodes":[
		{
			"mesh":0,
			"name":"Octopus"
		},
		{
			"mesh":1,
			"name":"Cube"
		}
	],
	"materials":[
		{
			"doubleSided":true,
			"name":"Octopus",
			"pbrMetallicRoughness":{
				"baseColorFactor":[
					0.800000011920929,
					0.800000011920929,
					0.800000011920929,
					1
				],
				"metallicFactor":0,
				"roughnessFactor":0.5
			}
		},
		{
			"doubleSided":true,
			"name":"Material",
			"pbrMetallicRoughness":{
				"baseColorFactor":[
					0.800000011920929,
					0.800000011920929,
					0.800000011920929,
					1
				],
				"metallicFactor":0,
				"roughnessFactor":0.5
			}
		}
	],
	"meshes":[
		{
			"name":"Sphere",
			"primitives":[
				{
					"attributes":{
						"POSITION":0,
						"TEXCOORD_0":1,
						"NORMAL":2
					},
					"indices":3,
					"material":0
				}
			]
		},
		{
			"name":"Cube",
			"primitives":[
				{
					"attributes":{
						"POSITION":4,
						"TEXCOORD_0":5,
						"NORMAL":6
					},
					"indices":7,
					"material":1
				}
			]
		}
	],
	"accessors":[
		{
			"bufferView":0,
			"componentType":5126,
			"count":1324,
			"max":[
				1.8376275300979614,
				1.8860682249069214,
				1.7745057344436646
			],
			"min":[
				-1.8376272916793823,
				-1.465790867805481,
				-1.7700834274291992
			],
			"type":"VEC3"
		},
		{
			"bufferView":1,
			"componentType":5126,
			"count":1324,
			"type":"VEC2"
		},
		{
			"bufferView":2,
			"componentType":5126,
			"count":1324,
			"type":"VEC3"
		},
		{
			"bufferView":3,
			"componentType":5123,
			"count":6336,
			"type":"SCALAR"
		},
		{
			"bufferView":4,
			"componentType":5126,
			"count":24,
			"max":[
				1,
				1,
				1
			],
			"min":[
				-1,
				-1,
				-1
			],
			"type":"VEC3"
		},
		{
			"bufferView":5,
			"componentType":5126,
			"count":24,
			"type":"VEC2"
		},
		{
			"bufferView":6,
			"componentType":5126,
			"count":24,
			"type":"VEC3"
		},
		{
			"bufferView":7,
			"componentType":5123,
			"count":36,
			"type":"SCALAR"
		}
	],
	"bufferViews":[
		{
			"buffer":0,
			"byteLength":15888,
			"byteOffset":0,
			"target":34962
		},
		{
			"buffer":0,
			"byteLength":10592,
			"byteOffset":15888,
			"target":34962
		},
		{
			"buffer":0,
			"byteLength":15888,
			"byteOffset":26480,
			"target":34962
		},
		{
			"buffer":0,
			"byteLength":12672,
			"byteOffset":42368,
			"target":34963
		},
		{
			"buffer":0,
			"byteLength":288,
			"byteOffset":55040,
			"target":34962
		},
		{
			"buffer":0,
			"byteLength":192,
			"byteOffset":55328,
			"target":34962
		},
		{
			"buffer":0,
			"byteLength":288,
			"byteOffset":55520,
			"target":34962
		},
		{
			"buffer":0,
			"byteLength":72,
			"byteOffset":55808,
			"target":34963
		}
	],
	"buffers":[
		{
			"byteLength":55880,
			"uri":"data:application/octet-stream;base64,"
		}
	]
}
